<?xml version="1.0" encoding="UTF-8" standalone="no"?>
<svg width="16px" height="10px" viewBox="0 0 16 10" version="1.1" xmlns="http://www.w3.org/2000/svg" xmlns:xlink="http://www.w3.org/1999/xlink">
    <!-- Generator: Sketch 3.8.3 (29802) - http://www.bohemiancoding.com/sketch -->
    <title>behance-logo</title>
    <desc>Created with Sketch.</desc>
    <defs>
        <polygon id="path-1" points="16 9.78282609 16 0.0434782609 0 0.0434782609 0 4.91315217 0 9.78282609 16 9.78282609"></polygon>
    </defs>
    <g id="Page-2" stroke="none" stroke-width="1" fill="none" fill-rule="evenodd">
        <g id="Desktop-HD-Copy-4" transform="translate(-1120.000000, -921.000000)">
            <g id="behance-logo" transform="translate(1120.000000, 921.000000)">
                <mask id="mask-2" fill="white">
                    <use xlink:href="#path-1"></use>
                </mask>
                <g id="Clip-2"></g>
                <path d="M10.44,1.42173913 L14.4495556,1.42173913 L14.4495556,0.447608696 L10.44,0.447608696 L10.44,1.42173913 Z M7.77177778,5.41630435 C8.03044444,5.80869565 8.15977778,6.28413043 8.15977778,6.84282609 C8.15977778,7.42130435 8.01377778,7.93913043 7.71711111,8.39695652 C7.52866667,8.7 7.29422222,8.95565217 7.01311111,9.16195652 C6.69622222,9.40065217 6.32022222,9.56369565 5.88888889,9.65108696 C5.45666667,9.73869565 4.98777778,9.78282609 4.48355556,9.78282609 L0,9.78282609 L0,0.0434782609 L4.80822222,0.0434782609 C6.02,0.0630434783 6.87933333,0.406086957 7.38622222,1.08108696 C7.69088889,1.49478261 7.842,1.99065217 7.842,2.56804348 C7.842,3.16347826 7.68933333,3.63978261 7.382,4.00152174 C7.21088889,4.20456522 6.95822222,4.38956522 6.62333333,4.55608696 C7.13022222,4.73782609 7.51466667,5.02304348 7.77177778,5.41630435 L7.77177778,5.41630435 Z M2.296,3.88347826 L4.40266667,3.88347826 C4.836,3.88347826 5.18577778,3.80282609 5.45488889,3.64152174 C5.72488889,3.48108696 5.85844444,3.19565217 5.85844444,2.78543478 C5.85844444,2.33195652 5.68044444,2.03152174 5.32377778,1.88695652 C5.01733333,1.78695652 4.62488889,1.73413043 4.14933333,1.73413043 L2.296,1.73413043 L2.296,3.88347826 Z M6.06155556,6.70369565 C6.06155556,6.1976087 5.85066667,5.84847826 5.42888889,5.66086957 C5.19266667,5.55391304 4.85933333,5.49956522 4.43311111,5.49521739 L2.296,5.49521739 L2.296,8.09130435 L4.40022222,8.09130435 C4.83155556,8.09130435 5.16666667,8.03608696 5.408,7.92043478 C5.84377778,7.70826087 6.06155556,7.30391304 6.06155556,6.70369565 L6.06155556,6.70369565 Z M15.9366667,5.12 C15.9853333,5.43826087 16.0068889,5.90021739 15.9982222,6.505 L10.8064444,6.505 C10.8351111,7.20543478 11.0824444,7.69630435 11.5511111,7.97652174 C11.8342222,8.1523913 12.1771111,8.23891304 12.5788889,8.23891304 C13.0026667,8.23891304 13.348,8.13369565 13.6137778,7.91891304 C13.7586667,7.80413043 13.8862222,7.64282609 13.9973333,7.43978261 L15.9002222,7.43978261 C15.8497778,7.85434783 15.6206667,8.27369565 15.2091111,8.70086957 C14.5711111,9.37847826 13.6762222,9.71913043 12.5268889,9.71913043 C11.5782222,9.71913043 10.7413333,9.43217391 10.0146667,8.86065217 C9.29088889,8.2873913 8.928,7.35673913 8.928,6.06586957 C8.928,4.85586957 9.25444444,3.92934783 9.90888889,3.28478261 C10.566,2.63869565 11.4148889,2.3176087 12.46,2.3176087 C13.0797778,2.3176087 13.6388889,2.42543478 14.1371111,2.64369565 C14.6344444,2.86195652 15.0442222,3.205 15.368,3.67630435 C15.6606667,4.0923913 15.8488889,4.57217391 15.9366667,5.12 L15.9366667,5.12 Z M14.0633333,5.30173913 C14.0286667,4.81673913 13.8628889,4.45 13.5651111,4.19847826 C13.27,3.94717391 12.9011111,3.82065217 12.46,3.82065217 C11.9808889,3.82065217 11.6111111,3.95565217 11.348,4.22152174 C11.0833333,4.48565217 10.9184444,4.84565217 10.8506667,5.30173913 L14.0633333,5.30173913 Z" id="Fill-1" fill="#16B9F8" mask="url(#mask-2)"></path>
            </g>
        </g>
    </g>
</svg>