<?xml version="1.0" encoding="UTF-8" standalone="no"?>
<svg width="15px" height="15px" viewBox="0 0 15 15" version="1.1" xmlns="http://www.w3.org/2000/svg" xmlns:xlink="http://www.w3.org/1999/xlink">
    <!-- Generator: Sketch 3.8.3 (29802) - http://www.bohemiancoding.com/sketch -->
    <title>Shape</title>
    <desc>Created with Sketch.</desc>
    <defs></defs>
    <g id="Page-2" stroke="none" stroke-width="1" fill="none" fill-rule="evenodd">
        <g id="Desktop-HD-Copy-4" transform="translate(-1140.000000, -953.000000)" fill="#16B9F8">
            <path d="M1147.5,967.503906 C1143.63691,967.503906 1140.49609,964.364885 1140.49609,960.502739 C1140.49609,956.635115 1143.63691,953.496094 1147.5,953.496094 C1151.36309,953.496094 1154.50391,956.635115 1154.50391,960.497261 C1154.50391,964.359407 1151.36309,967.503906 1147.5,967.503906 L1147.5,967.503906 L1147.5,967.503906 L1147.5,967.503906 Z M1153.40407,961.45595 C1153.20162,961.390211 1151.55461,960.902649 1149.67778,961.198473 C1150.46024,963.345936 1150.77761,965.098967 1150.8378,965.46053 C1152.18386,964.556623 1153.14143,963.121329 1153.40407,961.45595 L1153.40407,961.45595 L1153.40407,961.45595 L1153.40407,961.45595 Z M1149.83646,966.01383 C1149.74891,965.487921 1149.39872,963.658195 1148.56153,961.477863 C1148.55059,961.483341 1148.53417,961.488819 1148.52323,961.488819 C1145.14713,962.666637 1143.93786,965.005837 1143.82842,965.224966 C1144.8407,966.01383 1146.11563,966.484957 1147.5,966.484957 C1148.32624,966.490435 1149.11965,966.32061 1149.83646,966.01383 L1149.83646,966.01383 L1149.83646,966.01383 L1149.83646,966.01383 Z M1143.0569,964.507319 C1143.19369,964.277234 1144.83523,961.560036 1147.92133,960.557521 C1147.99793,960.53013 1148.08001,960.508217 1148.15662,960.486304 C1148.00888,960.146655 1147.84472,959.807005 1147.66963,959.472833 C1144.68202,960.365784 1141.78197,960.327436 1141.51932,960.321958 C1141.51932,960.382218 1141.51385,960.442479 1141.51385,960.502739 C1141.51932,962.042119 1142.09933,963.444544 1143.0569,964.507319 L1143.0569,964.507319 L1143.0569,964.507319 L1143.0569,964.507319 Z M1141.64517,959.281096 C1141.91329,959.286574 1144.3756,959.29753 1147.17716,958.552492 C1146.18677,956.788505 1145.11429,955.309385 1144.96108,955.095734 C1143.28124,955.884598 1142.03367,957.429457 1141.64517,959.281096 L1141.64517,959.281096 L1141.64517,959.281096 L1141.64517,959.281096 Z M1146.09922,954.690346 C1146.26337,954.909475 1147.35226,956.388595 1148.33171,958.19093 C1150.46024,957.391109 1151.35762,956.185901 1151.46706,956.03251 C1150.411,955.095734 1149.02116,954.525999 1147.5,954.525999 C1147.01848,954.525999 1146.54791,954.58626 1146.09922,954.690346 L1146.09922,954.690346 L1146.09922,954.690346 L1146.09922,954.690346 Z M1152.12914,956.722766 C1152.00329,956.892591 1151.00195,958.179973 1148.79135,959.08388 C1148.92814,959.368747 1149.06494,959.659093 1149.19079,959.949439 C1149.23456,960.053525 1149.27834,960.157611 1149.32211,960.256219 C1151.31385,960.004221 1153.28917,960.409609 1153.48615,960.447957 C1153.46974,959.040054 1152.96633,957.741715 1152.12914,956.722766 L1152.12914,956.722766 L1152.12914,956.722766 L1152.12914,956.722766 Z" id="Shape"></path>
        </g>
    </g>
</svg>