<?xml version="1.0" encoding="UTF-8" standalone="no"?>
<svg width="16px" height="16px" viewBox="0 0 16 16" version="1.1" xmlns="http://www.w3.org/2000/svg" xmlns:xlink="http://www.w3.org/1999/xlink">
    <!-- Generator: Sketch 3.8.3 (29802) - http://www.bohemiancoding.com/sketch -->
    <title>Shape</title>
    <desc>Created with Sketch.</desc>
    <defs></defs>
    <g id="Page-2" stroke="none" stroke-width="1" fill="none" fill-rule="evenodd">
        <g id="Desktop-HD-Copy-4" transform="translate(-1140.000000, -902.000000)" fill="#16B9F8">
            <path d="M1143.1105,914.441988 L1143.1105,907.925497 L1145.10121,907.925497 L1145.10121,914.441988 L1143.1105,914.441988 M1145.16342,906.121408 C1145.17898,906.681298 1144.75906,907.13232 1144.0903,907.13232 C1143.4682,907.13232 1143.06384,906.681298 1143.06384,906.121408 C1143.06384,905.545966 1143.48376,905.110497 1144.12141,905.110497 C1144.75906,905.110497 1145.16342,905.545966 1145.16342,906.121408 M1150.38906,914.441988 L1150.38906,910.833811 C1150.38906,909.993977 1150.10911,909.418535 1149.37815,909.418535 C1148.83381,909.418535 1148.50721,909.807347 1148.35168,910.180607 C1148.30503,910.320579 1148.28947,910.507209 1148.28947,910.693839 L1148.28947,914.441988 L1146.29876,914.441988 L1146.29876,910.009529 C1146.29876,909.2008 1146.26765,908.516491 1146.2521,907.925497 L1147.97842,907.925497 L1148.07174,908.843093 L1148.10284,908.843093 C1148.36724,908.407624 1149.02044,907.785524 1150.09356,907.785524 C1151.39997,907.785524 1152.39533,908.672016 1152.39533,910.600524 L1152.39533,914.441988 L1150.38906,914.441988 M1155.55248,903.368619 C1155.55248,902.622099 1154.93039,902 1154.18387,902 L1141.36862,902 C1140.6221,902 1140,902.622099 1140,903.368619 L1140,916.183866 C1140,916.930385 1140.6221,917.552484 1141.36862,917.552484 L1154.18387,917.552484 C1154.93039,917.552484 1155.55248,916.930385 1155.55248,916.183866 L1155.55248,903.368619" id="Shape"></path>
        </g>
    </g>
</svg>